<?xml version="1.0" encoding="UTF-8"?> <svg xmlns="http://www.w3.org/2000/svg" width="147" height="80" viewBox="0 0 147 80" fill="none"><g clip-path="url(#clip0_405_8368)"><path d="M48.6105 32.5851C48.6105 33.762 49.2005 33.762 49.2005 33.762H58.6113C61.5545 33.762 61.5545 36.1162 61.5545 36.7039L61.5505 37.2915H53.3176C52.1403 37.2915 47.4355 37.2915 47.4355 42.2933V42.8806C47.4355 47.8807 52.1403 47.8807 53.3176 47.8807H63.9064V37.2915V36.7039C63.9064 36.1162 63.9064 31.4102 58.6113 31.4102H49.2005C49.2005 31.4102 48.6105 31.4102 48.6105 32.5851ZM53.3179 45.5265C52.1406 45.5265 49.7878 45.5265 49.7878 42.8803V42.2929C49.7878 39.6454 52.1406 39.6454 53.3179 39.6454H61.5548V45.5265H53.3179Z" fill="#B0B7BF"></path><path d="M105.669 32.5851C105.669 33.762 106.257 33.762 106.257 33.762H115.669C118.61 33.762 118.61 36.1162 118.61 36.7039V37.2915H110.375C109.2 37.2915 104.492 37.2915 104.492 42.2933V42.8806C104.492 47.8807 109.2 47.8807 110.375 47.8807H120.962V37.2915V36.7039C120.962 36.1162 120.962 31.4102 115.669 31.4102H106.257C106.257 31.4102 105.669 31.4102 105.669 32.5851ZM110.376 45.5265C109.2 45.5265 106.846 45.5265 106.846 42.8803V42.2929C106.846 39.6454 109.2 39.6454 110.376 39.6454H118.61V45.5265H110.376Z" fill="#B0B7BF"></path><path d="M130.962 47.8802H128.609V37.291V36.7034C128.609 36.1158 128.609 31.4097 133.903 31.4097H137.432C137.432 31.4097 138.02 31.4097 138.02 32.5846C138.02 33.7616 137.432 33.7616 137.432 33.7616H133.903C130.962 33.7616 130.962 36.1158 130.962 36.7034V37.291V47.8802Z" fill="#B0B7BF"></path><path d="M82.7294 59.6438C83.9067 59.6438 83.9067 59.0561 83.9067 59.0561V47.88H89.7877C92.1396 47.88 98.0223 47.88 98.0223 40.822V38.4662C98.0223 31.4102 92.1396 31.4102 89.7877 31.4102H81.5508V47.8803V59.0565C81.5505 59.0558 81.5544 59.6438 82.7294 59.6438ZM89.7874 33.7617C92.1393 33.7617 95.6701 33.7617 95.6701 38.4658V40.8217C95.6701 45.5261 92.1389 45.5261 89.7874 45.5261H83.9063V33.7617H89.7874Z" fill="#B0B7BF"></path><path d="M71.5527 47.8803H73.905V20.2317C73.905 20.2317 73.905 19.644 72.7277 19.644C71.5527 19.644 71.5527 20.2317 71.5527 20.2317V47.8803Z" fill="#B0B7BF"></path><path d="M143.902 47.8803H146.257V31.9975C146.257 31.9975 146.257 31.4102 145.08 31.4102C143.902 31.4102 143.902 31.9975 143.902 31.9975V47.8803Z" fill="#B0B7BF"></path><path d="M146.843 26.7026C146.843 27.8812 146.552 28.1752 146.552 28.1752C146.552 28.1752 146.256 28.4688 145.079 28.4688C143.902 28.4688 143.608 28.1752 143.608 28.1752C143.608 28.1752 143.314 27.8812 143.314 26.7026C143.314 25.5256 143.608 25.2336 143.608 25.2336C143.608 25.2336 143.902 24.938 145.079 24.938C146.257 24.938 146.552 25.2336 146.552 25.2336C146.552 25.2336 146.843 25.5256 146.843 26.7026Z" fill="#B0B7BF"></path><path d="M34.1378 47.194L34.1379 47.194C35.4164 48.4719 37.0802 48.4861 37.1631 48.4861H37.6917H37.9405H37.9407V48.2372H38.1894V47.8645V47.6156H37.9405H37.1629L37.1629 47.6156C37.1531 47.6155 35.7699 47.5948 34.7529 46.5784C34.7529 46.5783 34.7529 46.5783 34.7529 46.5783L30.8711 42.696L30.871 42.6959C30.4171 42.2424 29.9212 41.9866 29.3982 41.9863C28.875 41.986 28.3792 42.2414 27.9257 42.6962L27.0689 43.553L24.6589 41.1423L24.6589 41.1423C24.2072 40.6907 23.7116 40.4325 23.1866 40.4325C22.6616 40.4325 22.1655 40.6907 21.7142 41.1423L20.8572 41.9994L17.1502 38.2932L16.9742 38.1173L16.7983 38.2933L11.5388 43.553L10.6824 42.696L10.6824 42.696C10.2296 42.2429 9.73291 41.9884 9.20952 41.9884C8.68612 41.9884 8.18943 42.2429 7.73661 42.696L3.8547 46.5778L3.85467 46.5778C2.83876 47.594 1.45558 47.6154 1.44454 47.6155L1.44447 47.6155H0.667969H0.419109V47.8644V48.2374V48.4862H0.667969H1.44447C1.52741 48.4862 3.19185 48.472 4.47044 47.1934L4.29447 47.0175L4.47044 47.1934L8.35264 43.311L8.3528 43.3109C8.67817 42.9849 8.95988 42.8578 9.2095 42.8579C9.45915 42.8579 9.74077 42.9852 10.0659 43.3109L10.0661 43.311L11.3628 44.608L11.5388 44.784L11.7148 44.608L16.9744 39.3481L20.6814 43.0541L20.8573 43.2301L21.0333 43.0541L22.3296 41.758C22.3296 41.758 22.3296 41.758 22.3296 41.758C22.6551 41.4326 22.9428 41.3032 23.1867 41.3032C23.4299 41.3032 23.7176 41.4325 24.0438 41.7587L26.8931 44.608L27.0692 44.784L27.2451 44.608L28.5414 43.3111C28.5414 43.3111 28.5414 43.3111 28.5414 43.311C28.5414 43.311 28.5414 43.311 28.5415 43.311C28.8698 42.9829 29.1506 42.8555 29.3988 42.8555C29.6469 42.8554 29.9277 42.9826 30.2561 43.311C30.2562 43.311 30.2562 43.311 30.2562 43.311L34.1378 47.194Z" fill="#B0B7BF" stroke="#B0B7BF" stroke-width="0.497719"></path><path d="M34.1376 43.3106L34.1376 43.3105L30.2561 39.4278C29.9274 39.0997 29.6465 38.9728 29.3982 38.9729C29.1499 38.973 28.8692 39.1004 28.541 39.4278C28.541 39.4278 28.541 39.4278 28.541 39.4278L27.2449 40.7246L27.0689 40.9006L26.8929 40.7246L24.0437 37.875C23.7152 37.5468 23.4344 37.4196 23.1864 37.4196C22.9384 37.4196 22.6578 37.5468 22.3295 37.8749C22.3295 37.8749 22.3295 37.8749 22.3295 37.8749C22.3295 37.8749 22.3295 37.875 22.3295 37.875L21.0332 39.1718L20.8572 39.3478L20.6812 39.1718L16.9743 35.4648L11.7155 40.7247L11.5395 40.9007L11.3635 40.7247L10.066 39.4278C9.73792 39.0998 9.45725 38.9727 9.20912 38.9728C8.96092 38.9728 8.68008 39.1001 8.35171 39.4279L4.47047 43.3106L4.47044 43.3107C3.19186 44.5893 1.52743 44.6036 1.44447 44.6036H0.667969H0.419109V44.3547V43.9816V43.7328H0.667969H1.44447L1.44454 43.7328C1.45538 43.7326 2.83872 43.7115 3.85471 42.6956L7.73665 38.8127L7.73681 38.8125C8.19081 38.3592 8.68666 38.1042 9.20948 38.1042C9.73231 38.1043 10.228 38.3593 10.6816 38.8123L10.6817 38.8124L11.5388 39.6697L16.7984 34.41L16.9743 34.234L17.1503 34.41L20.8573 38.117L21.7142 37.2601L34.1376 43.3106ZM34.1376 43.3106C35.4162 44.5891 37.0799 44.6035 37.1629 44.6035H37.9405H37.9406H38.1895V44.3546V43.9816V43.7328H37.9406H37.163L37.163 43.7328C37.1533 43.7326 35.77 43.712 34.753 42.6956L30.8712 38.8125L30.8709 38.8122C30.4163 38.3587 29.92 38.1038 29.3971 38.104C28.8742 38.1042 28.3788 38.3595 27.926 38.8127L27.069 39.6697M34.1376 43.3106L27.069 39.6697M27.069 39.6697L24.659 37.2596L24.6589 37.2595C24.2043 36.8054 23.7081 36.5503 23.1851 36.5506C22.6623 36.5509 22.167 36.8065 21.7144 37.26L27.069 39.6697Z" fill="#B0B7BF" stroke="#B0B7BF" stroke-width="0.497719"></path><path d="M11.5388 35.7871L16.7984 30.5276L16.9743 30.3517L17.1503 30.5276L20.8573 34.2341L21.7144 33.3773M11.5388 35.7871L21.7144 33.3773M11.5388 35.7871L10.6817 34.93L10.6817 34.9299C10.228 34.4766 9.73218 34.2213 9.20923 34.2213C8.68626 34.2213 8.19037 34.4766 7.73667 34.9303C7.73667 34.9303 7.73666 34.9303 7.73666 34.9303L3.85469 38.8124L3.85469 38.8124C2.83876 39.8284 1.45554 39.8497 1.44454 39.8499L1.44447 39.8499H0.667969H0.419109V40.0988V40.4717V40.7206H0.667969H1.44447C1.52741 40.7206 3.19185 40.7064 4.47044 39.4278L4.47045 39.4278L8.35185 35.5459C8.35186 35.5458 8.35187 35.5458 8.35188 35.5458C8.68027 35.2175 8.96107 35.0901 9.20914 35.0901C9.45716 35.09 9.7378 35.2172 10.0659 35.5455L10.066 35.5455L11.3627 36.8422L11.5387 37.0181L11.7147 36.8422L16.9742 31.5827L20.6812 35.2891L20.8572 35.465L21.0332 35.2891L22.3294 33.9929C22.6552 33.6674 22.9369 33.5403 23.1866 33.5403C23.4362 33.5403 23.7179 33.6673 24.0436 33.993L24.0436 33.9931L26.8929 36.8422L27.0689 37.0181L27.2449 36.8422L28.5412 35.546L28.368 35.3728L28.5412 35.5459C28.8694 35.2177 29.1501 35.0903 29.3982 35.0902C29.6463 35.0901 29.9272 35.2172 30.2559 35.5456C30.256 35.5456 30.256 35.5457 30.256 35.5457L34.1376 39.4279L34.3029 39.2626L34.1376 39.4279C35.4162 40.7065 37.0799 40.7207 37.1629 40.7207H37.9405H37.9406H38.1895V40.4718V40.0989V39.85H37.9406H37.163L37.163 39.85C37.1532 39.8499 35.77 39.8291 34.753 38.8127C34.753 38.8127 34.753 38.8127 34.753 38.8127L30.8712 34.93L30.8711 34.93C30.4171 34.4761 29.9207 34.221 29.3976 34.2211C28.8746 34.2213 28.3789 34.4767 27.9261 34.9303L11.5388 35.7871ZM21.7144 33.3773C22.167 32.9248 22.6635 32.6707 23.1867 32.6707C23.7098 32.6707 24.2064 32.9248 24.659 33.3777M21.7144 33.3773L24.659 33.3777M24.659 33.3777L27.069 35.7871L27.9259 34.9305L24.659 33.3777Z" fill="#B0B7BF" stroke="#B0B7BF" stroke-width="0.497719"></path><path d="M38.1895 36.8377H37.9406H37.163C37.0801 36.8377 35.4163 36.8235 34.1378 35.5458L34.1377 35.5457L30.2561 31.6636C29.9276 31.3352 29.6468 31.2079 29.3986 31.2079C29.1504 31.2079 28.8696 31.3352 28.5412 31.6634L27.245 32.9601L27.069 33.1362L26.893 32.9602L24.0438 30.1106C24.0438 30.1106 24.0437 30.1105 24.0437 30.1105C23.7177 29.7848 23.4299 29.6556 23.1864 29.6554L38.1895 36.8377ZM38.1895 36.8377V36.5889M38.1895 36.8377V36.5889M27.069 31.9051L24.659 29.4947L24.659 29.4946C24.2073 29.043 23.7117 28.7849 23.1867 28.7849C22.6617 28.7849 22.1656 29.0431 21.7143 29.4947L20.8573 30.3515L17.1503 26.6453L16.9743 26.4694L16.7984 26.6453L11.5389 31.905L10.6825 31.0481L10.6825 31.048C10.2297 30.5951 9.73304 30.3406 9.20967 30.3405C8.68629 30.3404 8.1896 30.5947 7.73678 31.048C7.73675 31.048 7.73672 31.0481 7.73669 31.0481L3.85495 34.9297L27.069 31.9051ZM27.069 31.9051L27.9259 31.0479L27.069 31.9051ZM16.9743 27.7004L11.7147 32.9602L11.5387 33.1362L11.3627 32.9602L10.066 31.6633L10.0658 31.6631C9.74066 31.3374 9.45904 31.2102 9.20939 31.2101C8.95977 31.2101 8.67807 31.3371 8.35269 31.6631L8.35252 31.6633L4.47 35.5457L4.46998 35.5457C3.19181 36.8235 1.52726 36.8377 1.44447 36.8377H0.667969H0.419109V36.5889V36.2158V35.9669H0.667969H1.44447L1.44454 35.9669C1.45553 35.9667 2.83876 35.9455 3.85492 34.9297L16.9743 27.7004ZM16.9743 27.7004L20.6812 31.4065L20.8572 31.5825L21.0332 31.4065L22.3295 30.1102L22.3295 30.1101C22.6548 29.7846 22.9425 29.6554 23.1864 29.6554L16.9743 27.7004ZM38.1895 36.5889V36.2158V35.9669H37.9406H37.163C37.1637 35.9669 35.7775 35.9541 34.753 34.9298L30.8712 31.0478L30.8711 31.0477M38.1895 36.5889L30.8711 31.0477M30.8711 31.0477C30.4172 30.5943 29.9212 30.3387 29.3983 30.3385M30.8711 31.0477L29.3983 30.3385M29.3983 30.3385C28.8752 30.3384 28.3795 30.5936 27.9261 31.0478L29.3983 30.3385Z" fill="#B0B7BF" stroke="#B0B7BF" stroke-width="0.497719"></path></g><defs><clipPath id="clip0_405_8368"><rect width="146" height="80" fill="white" transform="translate(0.667969)"></rect></clipPath></defs></svg> 