<?xml version="1.0" encoding="UTF-8"?> <svg xmlns="http://www.w3.org/2000/svg" width="114" height="80" viewBox="0 0 114 80" fill="none"><path d="M98.4284 24.4101C98.3924 24.3671 98.1424 24.0001 97.8024 24.0001C97.4614 24.0001 97.2174 24.3401 97.3324 24.6081C97.4464 24.8781 100.612 31.3701 100.021 33.5181C99.4294 35.6661 96.5613 35.2461 96.0893 35.2461C95.8623 35.2461 96.0143 35.4331 96.2943 35.6841C97.8643 37.0861 98.9503 39.0491 98.9503 41.6711V43.6141C98.9507 43.6257 98.9535 43.6371 98.9585 43.6476C98.9634 43.6581 98.9706 43.6675 98.9793 43.6751C98.9882 43.6828 98.9985 43.6885 99.0097 43.6919C99.0209 43.6954 99.0327 43.6965 99.0443 43.6951C102.628 43.2881 108.209 41.0721 106.74 35.6021C106.165 33.4371 101.66 28.4251 98.4284 24.4111V24.4101ZM88.4633 34.9201C84.6183 34.9581 80.1293 37.1801 80.1293 41.6701V48.4921C80.1293 53.0551 84.6183 55.2021 88.4633 55.2401C92.2343 55.2021 96.7234 53.0541 96.7234 48.4921V41.6691C96.7234 37.1811 92.2343 34.9591 88.4633 34.9201ZM92.5704 48.1801C92.5704 50.0271 90.0803 51.0821 88.4633 51.0821C86.7293 51.0821 84.2754 50.0271 84.2754 48.1801V41.6701C84.2754 39.8211 86.7293 38.9541 88.4633 38.9541C90.0853 38.9541 92.5704 39.8211 92.5704 41.6691V48.1801ZM59.4873 34.9201C55.6423 34.9581 51.1533 37.1801 51.1533 41.6701V48.4921C51.1533 53.0551 55.6423 55.2021 59.4873 55.2401C63.2573 55.2021 67.7473 53.0541 67.7473 48.4921V41.6691C67.7473 37.1811 63.2573 34.9591 59.4873 34.9201ZM63.5943 48.1801C63.5943 50.0271 61.1013 51.0821 59.4873 51.0821C57.7533 51.0821 55.2993 50.0271 55.2993 48.1801V41.6701C55.2993 39.8211 57.7533 38.9501 59.4873 38.9501C61.1073 38.9501 63.5943 39.8171 63.5943 41.6651V48.1801ZM17.6833 35.6801C17.9643 35.4301 18.1153 35.2421 17.8883 35.2421C17.4153 35.2421 14.5423 35.6621 13.9563 33.5141C13.3713 31.3671 16.5263 24.8841 16.6463 24.6051C16.7663 24.3271 16.5223 23.9971 16.1763 23.9971C15.8293 23.9971 15.5863 24.3631 15.5493 24.4091C12.3233 28.4231 7.81935 33.4341 7.23735 35.5951C5.76935 41.0711 11.4473 43.2831 15.0293 43.6881C15.041 43.6901 15.0529 43.6895 15.0643 43.6864C15.0757 43.6833 15.0863 43.6777 15.0953 43.6701C15.1044 43.6623 15.1116 43.6526 15.1165 43.6417C15.1213 43.6308 15.1237 43.619 15.1233 43.6071V41.6671C15.1233 39.0471 16.1133 37.0821 17.6833 35.6801ZM50.8443 36.4061C47.7743 35.5761 45.5043 35.2281 42.2143 35.2281C38.9243 35.2281 36.6493 35.5761 33.5843 36.4031C33.5404 36.4104 33.501 36.4348 33.4748 36.4709C33.4487 36.507 33.4377 36.552 33.4443 36.5961C33.4489 36.6253 33.4609 36.6529 33.4793 36.6761C34.5273 37.5411 34.9663 38.7001 35.1723 40.0071C36.8014 39.599 38.4655 39.3468 40.1423 39.2541V55.1061C40.1417 55.1191 40.1438 55.1321 40.1487 55.1441C40.1535 55.1562 40.1609 55.1671 40.1703 55.1761C40.18 55.1849 40.1914 55.1915 40.2038 55.1955C40.2162 55.1995 40.2294 55.2007 40.2423 55.1991H44.1883C44.2563 55.1991 44.2893 55.1741 44.2883 55.1101V39.2631C45.9042 39.3619 47.507 39.6137 49.0753 40.0151C49.3293 38.7151 49.8613 37.5031 50.9353 36.6911C50.9511 36.6745 50.9633 36.6549 50.9713 36.6335C50.9794 36.6121 50.983 36.5893 50.9821 36.5665C50.9812 36.5436 50.9757 36.5212 50.9659 36.5005C50.9562 36.4798 50.9424 36.4613 50.9253 36.4461C50.9027 36.4259 50.8741 36.4121 50.8443 36.4061ZM80.2813 35.0591C79.6413 34.9591 78.9954 34.9121 78.3484 34.9201C74.5714 35.0721 70.2993 37.2931 70.2993 41.6661V55.1461C70.2988 55.159 70.3011 55.1719 70.306 55.1838C70.311 55.1958 70.3185 55.2065 70.328 55.2153C70.3375 55.224 70.3488 55.2306 70.3612 55.2345C70.3735 55.2385 70.3865 55.2397 70.3993 55.2381H74.3444C74.4134 55.2381 74.4464 55.2141 74.4444 55.1501V41.6671C74.4444 40.2241 76.2203 39.3331 77.7003 39.0321C78.1303 37.5941 78.9784 36.5571 80.2724 35.5181C80.5024 35.3351 80.4903 35.0881 80.2823 35.0581L80.2813 35.0591ZM25.3773 34.7771C21.4753 34.8151 17.1843 37.0711 17.1843 41.6221V48.5441C17.1843 53.1691 21.4753 55.3491 25.3773 55.3891C28.1703 55.3591 31.3523 54.2041 32.8673 51.7551C32.8882 51.7143 32.8924 51.6671 32.8792 51.6233C32.866 51.5794 32.8363 51.5425 32.7963 51.5201C31.4603 50.7601 30.6843 50.3301 29.3623 49.5871C29.3527 49.5804 29.3417 49.5759 29.3302 49.5738C29.3186 49.5717 29.3067 49.5722 29.2953 49.5751C29.2838 49.5781 29.2731 49.5836 29.2639 49.5912C29.2548 49.5988 29.2474 49.6083 29.2423 49.6191C28.5183 50.8241 26.6733 51.4891 25.3773 51.4891C23.6173 51.4891 21.3903 50.4241 21.3903 48.5441V46.4741H32.2023C32.3397 46.4741 32.4756 46.447 32.6025 46.3944C32.7293 46.3418 32.8446 46.2648 32.9416 46.1676C33.0387 46.0705 33.1156 45.9552 33.1681 45.8283C33.2205 45.7014 33.2475 45.5654 33.2473 45.4281V41.6251C33.2473 37.0711 29.2003 34.8151 25.3773 34.7771ZM29.1283 42.8211C29.1284 42.844 29.1238 42.8666 29.115 42.8877C29.1062 42.9089 29.0932 42.928 29.077 42.9441C29.0607 42.9602 29.0414 42.9729 29.0202 42.9815C28.9989 42.9901 28.9762 42.9943 28.9533 42.9941H21.3903V41.6251C21.3903 39.7531 23.6173 38.8741 25.3773 38.8741C27.0203 38.8741 29.1303 39.7531 29.1303 41.6251L29.1283 42.8211Z" fill="#B0B7BF"></path></svg> 