<?xml version="1.0" encoding="UTF-8"?> <svg xmlns="http://www.w3.org/2000/svg" width="154" height="80" viewBox="0 0 154 80" fill="none"><g clip-path="url(#clip0_405_8344)"><path d="M10.0222 42.0802C10.2512 42.9172 10.6102 43.6902 11.0992 44.3982C11.5779 45.0952 12.1591 45.7158 12.8232 46.2392C13.4842 46.7592 14.2232 47.1632 15.0432 47.4522C15.8678 47.7421 16.736 47.8885 17.6102 47.8852C18.9602 47.8852 20.1382 47.6022 21.1452 47.0402C22.1512 46.4772 22.9572 45.8362 23.5592 45.1132H28.4322C27.9675 46.1027 27.3652 47.0214 26.6432 47.8422C25.911 48.6796 25.0702 49.4155 24.1432 50.0302C23.1968 50.657 22.1657 51.1453 21.0812 51.4802C19.9752 51.8272 18.8182 52.0002 17.6112 52.0002C15.9732 52.0002 14.4262 51.6822 12.9752 51.0472C11.5584 50.4363 10.2708 49.5614 9.18116 48.4692C8.09393 47.3714 7.224 46.0781 6.61716 44.6572C5.98193 43.1872 5.65846 41.6015 5.66716 40.0002C5.66716 38.3542 5.98216 36.8022 6.61616 35.3432C7.22272 33.9216 8.09306 32.6278 9.18116 31.5302C10.2718 30.4394 11.5592 29.565 12.9752 28.9532C14.4371 28.3157 16.0163 27.9911 17.6112 28.0002C19.2492 28.0002 20.7942 28.3182 22.2462 28.9532C23.6628 29.5644 24.9503 30.4392 26.0402 31.5312C27.1281 32.6288 27.9987 33.9222 28.6062 35.3432C29.2382 36.8022 29.5552 38.3532 29.5552 40.0002C29.5552 40.3762 29.5402 40.7362 29.5112 41.0822C29.4812 41.4292 29.4392 41.7622 29.3812 42.0782H10.0212L10.0222 42.0802ZM25.1972 37.9642C24.9703 37.1339 24.6139 36.3445 24.1412 35.6252C23.6749 34.912 23.0921 34.2823 22.4172 33.7622C21.7449 33.2447 20.9958 32.8354 20.1972 32.5492C19.3664 32.2563 18.491 32.1101 17.6102 32.1172C16.7345 32.1142 15.8654 32.2683 15.0442 32.5722C14.2389 32.8682 13.483 33.2842 12.8022 33.8062C12.1301 34.3215 11.5473 34.9438 11.0772 35.6482C10.6016 36.3584 10.245 37.1413 10.0212 37.9662H25.1972V37.9642ZM30.2842 30.8602L33.2152 28.0012L41.9252 37.0552L50.6332 28.0012L53.5632 30.8602L44.7722 40.0002L53.5672 49.1402L50.6352 52.0002L41.9252 42.9462L33.2172 52.0002L30.2862 49.1412L39.0792 40.0002L30.2842 30.8602ZM56.1122 39.3932C56.1122 37.8332 56.4062 36.3602 56.9962 34.9732C57.5664 33.615 58.3936 32.3798 59.4322 31.3352C60.4704 30.2936 61.7004 29.4627 63.0542 28.8882C64.444 28.2945 65.9409 27.9922 67.4522 28.0002C69.0052 28.0002 70.4692 28.2972 71.8502 28.8882C73.204 29.4627 74.4339 30.2936 75.4722 31.3352C76.51 32.3805 77.3368 33.616 77.9072 34.9742C78.4985 36.372 78.7992 37.8755 78.7912 39.3932V51.3052H74.3072V39.1752C74.3128 38.2527 74.129 37.3388 73.7672 36.4902C73.4223 35.6747 72.925 34.9325 72.3022 34.3032C71.6771 33.6778 70.9381 33.1778 70.1252 32.8302C69.2811 32.4669 68.371 32.2824 67.4522 32.2882C66.5032 32.2882 65.6122 32.4702 64.7792 32.8302C63.9452 33.1912 63.2192 33.6822 62.6022 34.3032C61.9785 34.932 61.4809 35.6744 61.1362 36.4902C60.7742 37.3391 60.5904 38.2533 60.5962 39.1762V51.3052H56.1122V39.3932ZM86.2482 42.0802C86.4782 42.9172 86.8362 43.6902 87.3252 44.3982C87.8038 45.0952 88.3851 45.7158 89.0492 46.2392C89.7112 46.7592 90.4502 47.1632 91.2702 47.4522C92.0945 47.742 92.9624 47.8884 93.8362 47.8852C95.1862 47.8852 96.3652 47.6022 97.3722 47.0402C98.3772 46.4772 99.1832 45.8362 99.7862 45.1132H104.659C104.194 46.1028 103.592 47.0216 102.869 47.8422C102.137 48.6796 101.296 49.4155 100.369 50.0302C99.4231 50.6569 98.3924 51.1452 97.3082 51.4802C96.2012 51.8272 95.0452 52.0002 93.8382 52.0002C92.1992 52.0002 90.6532 51.6822 89.2022 51.0472C87.7854 50.4363 86.4978 49.5614 85.4082 48.4692C84.3202 47.3716 83.4496 46.0782 82.8422 44.6572C82.2076 43.1871 81.8848 41.6014 81.8942 40.0002C81.8942 38.3542 82.2092 36.8022 82.8422 35.3432C83.4491 33.9219 84.3198 32.6284 85.4082 31.5312C86.4988 30.4401 87.7861 29.5653 89.2022 28.9532C90.6638 28.3158 92.2426 27.9912 93.8372 28.0002C95.4752 28.0002 97.0202 28.3182 98.4732 28.9532C99.8897 29.5644 101.177 30.4392 102.267 31.5312C103.355 32.6289 104.225 33.9223 104.832 35.3432C105.464 36.8022 105.781 38.3532 105.781 40.0002C105.781 40.3762 105.767 40.7362 105.737 41.0822C105.708 41.4292 105.666 41.7622 105.607 42.0782H86.2492L86.2482 42.0802ZM101.424 37.9642C101.197 37.1339 100.841 36.3445 100.368 35.6252C99.9019 34.912 99.3191 34.2822 98.6442 33.7622C97.9715 33.2446 97.2222 32.8353 96.4232 32.5492C95.5924 32.2563 94.717 32.1101 93.8362 32.1172C92.9605 32.1142 92.0914 32.2683 91.2702 32.5722C90.4649 32.8682 89.709 33.2842 89.0282 33.8062C88.3565 34.3216 87.7741 34.9439 87.3042 35.6482C86.8286 36.3584 86.4719 37.1413 86.2482 37.9662H101.424V37.9642ZM118.367 51.9992C115.751 51.9992 113.488 51.3852 111.577 50.1582C109.665 48.9302 108.322 47.2482 107.546 45.1112H112.331C112.935 46.0352 113.776 46.7512 114.853 47.2562C115.939 47.7639 117.125 48.0228 118.324 48.0142C119.818 48.0142 120.975 47.7482 121.794 47.2122C122.613 46.6782 123.023 45.9492 123.023 45.0252C123.023 44.2742 122.727 43.6982 122.139 43.2932C121.549 42.8882 120.564 42.5562 119.185 42.2972L115.822 41.6472C113.177 41.1562 111.251 40.3772 110.044 39.3072C108.837 38.2402 108.232 36.7952 108.232 34.9752C108.232 33.9652 108.455 33.0332 108.9 32.1812C109.352 31.3203 109.985 30.5669 110.754 29.9722C111.544 29.3522 112.485 28.8672 113.578 28.5212C114.67 28.1752 115.877 28.0012 117.2 28.0012C119.642 28.0012 121.756 28.5862 123.538 29.7562C125.32 30.9262 126.57 32.5512 127.29 34.6292H122.504C122.015 33.7922 121.304 33.1422 120.37 32.6802C119.435 32.2182 118.392 31.9862 117.244 31.9862C115.864 31.9862 114.793 32.2392 114.031 32.7442C113.269 33.2502 112.889 33.9642 112.889 34.8882C112.889 35.5522 113.183 36.0862 113.773 36.4912C114.361 36.8952 115.331 37.2272 116.683 37.4862L120.046 38.1362C122.661 38.6272 124.588 39.4292 125.824 40.5412C127.059 41.6522 127.678 43.1182 127.678 44.9372C127.678 45.9772 127.447 46.9232 126.988 47.7742C126.513 48.6448 125.859 49.4054 125.069 50.0062C124.25 50.6412 123.265 51.1322 122.115 51.4782C120.969 51.8262 119.719 51.9982 118.367 51.9982V51.9992ZM140.356 51.9992C137.74 51.9992 135.476 51.3852 133.565 50.1582C131.653 48.9302 130.311 47.2482 129.534 45.1112H134.319C134.924 46.0352 135.764 46.7512 136.841 47.2562C137.927 47.7638 139.113 48.0227 140.312 48.0142C141.807 48.0142 142.963 47.7482 143.782 47.2122C144.601 46.6782 145.011 45.9492 145.011 45.0252C145.011 44.2742 144.715 43.6982 144.127 43.2932C143.537 42.8882 142.553 42.5562 141.173 42.2972L137.81 41.6472C135.165 41.1562 133.239 40.3772 132.032 39.3072C130.825 38.2402 130.221 36.7952 130.221 34.9752C130.221 33.9652 130.443 33.0332 130.889 32.1812C131.341 31.3203 131.973 30.5669 132.742 29.9722C133.532 29.3522 134.473 28.8672 135.566 28.5212C136.658 28.1752 137.866 28.0012 139.188 28.0012C141.63 28.0012 143.744 28.5862 145.526 29.7562C147.309 30.9262 148.558 32.5512 149.278 34.6292H144.493C144.004 33.7922 143.292 33.1422 142.358 32.6802C141.424 32.2182 140.381 31.9862 139.232 31.9862C137.852 31.9862 136.782 32.2392 136.02 32.7442C135.258 33.2502 134.877 33.9642 134.877 34.8882C134.877 35.5522 135.171 36.0862 135.761 36.4912C136.35 36.8952 137.32 37.2272 138.671 37.4862L142.035 38.1362C144.649 38.6272 146.576 39.4292 147.812 40.5412C149.047 41.6522 149.666 43.1182 149.666 44.9372C149.666 45.9772 149.436 46.9232 148.976 47.7742C148.501 48.6448 147.847 49.4054 147.057 50.0062C146.238 50.6412 145.253 51.1322 144.103 51.4782C142.957 51.8262 141.707 51.9982 140.356 51.9982V51.9992Z" fill="#B0B7BF"></path></g><defs><clipPath id="clip0_405_8344"><rect width="144" height="24" fill="white" transform="translate(5.66699 28)"></rect></clipPath></defs></svg> 