<?xml version="1.0" encoding="UTF-8"?> <svg xmlns="http://www.w3.org/2000/svg" width="160" height="80" viewBox="0 0 160 80" fill="none"><g clip-path="url(#clip0_405_8350)"><path d="M28.3366 29.9116V51.0029H23.7012V29.9116H28.3366Z" fill="#B0B7BF"></path><path d="M49.6827 43.0071C49.2192 48.1523 46.0207 51.6522 40.2728 51.6522C34.154 51.6522 30.1211 47.2484 30.1211 40.5735C30.1211 34.4314 34.0149 29.541 40.4582 29.541C45.5108 29.541 49.196 32.7395 49.5437 37.0968H45.0241C44.5606 34.7791 42.8455 33.4116 40.3655 33.4116C36.3326 33.4116 34.7566 37.0505 34.7566 40.5735C34.7566 44.9307 36.9121 47.712 40.296 47.712C43.0772 47.712 44.7228 46.0432 45.1168 42.9607H49.6827V43.0071Z" fill="#B0B7BF"></path><path d="M53.9707 50.9336V29.8423H60.5531L65.4435 44.328L70.218 29.8423H76.6613V50.9336H72.3271V35.9379L67.1587 50.9336H63.5893L58.3745 36.1001V50.9336H53.9707Z" fill="#B0B7BF"></path><path d="M92.7231 51.003V40.2488C92.7231 36.0305 89.2234 35.2888 86.164 35.2656H86.0714C81.6676 35.2656 79.2572 37.004 79.0255 40.4109H82.9424C83.2436 38.6727 84.0317 38.0701 85.9554 38.0701C87.8791 38.0701 88.6903 38.7191 88.6903 40.1097C88.6903 41.3381 87.7169 41.5931 85.0747 41.9407L84.4258 42.0334C81.5517 42.4275 78.3301 43.0532 78.3301 46.8311C78.3301 49.7051 80.3928 51.4434 83.7536 51.4434C85.5846 51.4434 87.3924 50.8175 88.6903 49.5196V51.003H92.7231ZM88.6903 43.5631V45.2782C88.6903 47.48 87.1607 48.6852 84.982 48.6852C83.545 48.6852 82.6875 47.9204 82.6875 46.6456C82.6875 44.7683 84.3099 44.606 85.7468 44.3743C86.7898 44.1888 87.7169 44.1193 88.6903 43.5631Z" fill="#B0B7BF"></path><path d="M98.3094 51.0027V41.4537C98.3094 40.457 99.0974 39.669 100.094 39.669H103.965V35.5435H100.094C96.8492 35.5435 94.207 38.1857 94.207 41.4537V51.0027H98.3094Z" fill="#B0B7BF"></path><path d="M139.032 29.8423V35.5439H143.667V39.6695H139.032V45.0698C139.032 46.0664 139.82 46.8544 140.817 46.8544H143.667V50.9799H140.817C137.572 50.9799 134.93 48.3378 134.93 45.0698V29.8423H139.032Z" fill="#B0B7BF"></path><path d="M119.307 35.6359L113.582 41.2911L119.979 50.9097H114.903L110.708 44.1187L108.993 45.7179V50.9097H104.891V29.8184H109.016V41.1057L114.394 35.6127H119.307V35.6359Z" fill="#B0B7BF"></path><path d="M133.516 46.1823H129.507C128.881 47.712 127.953 48.4073 126.401 48.4073C124.152 48.4073 122.878 46.9935 122.831 44.3513H133.748V43.9341C133.748 38.5802 130.828 35.1963 126.216 35.1963C121.603 35.1963 118.566 38.6265 118.566 43.3779C118.566 48.1292 121.672 51.374 126.354 51.374C129.831 51.374 132.566 49.4967 133.516 46.1823ZM129.483 41.686H122.809C123.039 39.5536 124.338 38.2557 126.192 38.2557C128.324 38.2325 129.321 39.8085 129.483 41.686Z" fill="#B0B7BF"></path><path d="M158.106 40.0867H154.213C153.981 38.4874 153.008 37.9776 151.316 37.9776C149.833 37.9776 148.952 38.5338 148.952 39.4841C148.952 40.5734 149.925 40.8748 151.733 41.2456L153.147 41.5469C155.766 42.1032 158.57 42.9144 158.57 46.1823C158.57 49.4503 155.951 51.374 151.594 51.374C147.793 51.374 144.502 49.8675 144.455 45.9505H148.442C148.58 47.7816 149.762 48.5 151.686 48.5C153.401 48.5 154.467 47.7584 154.467 46.5995C154.467 45.348 153.309 45.0698 151.247 44.6063L150.875 44.5136C148.187 43.9109 144.78 43.4474 144.78 39.8781C144.78 36.8882 147.19 35.1963 151.454 35.1963C154.977 35.1963 157.99 36.5174 158.106 40.0867Z" fill="#B0B7BF"></path><path d="M7.26631 44.1426V51.0958H2.63086V44.1426H7.26631Z" fill="#B0B7BF"></path><path d="M14.2194 36.0303V51.0955H9.58398V36.0303H14.2194Z" fill="#B0B7BF"></path><path d="M21.1491 40.6655V51.0952H16.5137V40.6655H21.1491Z" fill="#B0B7BF"></path></g><defs><clipPath id="clip0_405_8350"><rect width="159.334" height="80" fill="white" transform="translate(0.333984)"></rect></clipPath></defs></svg> 