<?xml version="1.0" encoding="UTF-8"?> <svg xmlns="http://www.w3.org/2000/svg" width="108" height="80" viewBox="0 0 108 80" fill="none"><g clip-path="url(#clip0_405_8337)"><path d="M59.8547 32.7578L57.2114 27.0161H48.1602L53.7231 38.4994L59.8547 32.7578Z" fill="#B0B7BF"></path><path d="M81.3325 27H65.1583L43.0312 53H51.8333L57.6292 46.0883L60.8142 53H76.0079L78.0446 41.43L79.8917 47.8L85.4167 41.17L81.3325 27ZM68.9338 50.9146L63.5442 39.4583L72.8554 28.6738L68.9338 50.9146Z" fill="#B0B7BF"></path><path d="M95.1454 27.0161L80.3633 49.4465H87.7787L93.4066 40.6715L91.2345 52.9836H98.7095L103.292 27.0161H95.1454Z" fill="#B0B7BF"></path><path d="M16.3705 27.9694C16.1994 29.1746 16.1432 30.3934 16.2026 31.6094C16.3759 33.3264 17.443 34.2039 18.8459 34.751C19.338 34.9983 19.891 35.098 20.4384 35.0381C20.6559 34.9634 20.8578 34.8496 21.0343 34.7023C21.5645 34.3535 22.166 34.1278 22.7947 34.0414C23.7532 33.9771 24.7151 34.0984 25.6276 34.3989C26.4508 34.595 27.2474 34.8897 28.0001 35.2764C28.3291 35.4826 28.5996 35.7698 28.7855 36.1106C29.1105 36.6523 29.2405 37.5839 29.9772 37.7356C30.072 36.9376 30.0955 36.1328 30.0476 35.3306C30.0939 34.5871 30.1971 33.8483 30.3564 33.1206C30.5679 32.1078 30.83 31.1063 31.1418 30.1198C31.1905 29.9681 31.3259 29.2044 31.6184 29.3127C31.7484 29.356 31.7214 29.6702 31.7159 29.8544C31.7159 30.4935 31.6455 30.9377 31.5968 31.5931C31.4322 33.1299 31.4722 34.6818 31.7159 36.2081C31.9153 36.9364 32.0029 37.6906 31.9759 38.4452C31.9759 38.651 31.8514 38.9002 31.8134 39.1331C31.7755 39.366 31.8134 39.4852 31.7647 39.6314C31.6531 39.9022 31.5094 40.1586 31.3368 40.3952C31.2582 40.5179 31.1859 40.6444 31.1201 40.7744C31.0389 40.926 30.898 40.9964 30.9089 41.1535C30.9089 41.3973 31.3964 41.8685 31.6455 41.9389C32.7289 42.2423 33.888 42.3994 34.5218 43.0223C34.9459 43.4226 35.2097 43.9637 35.2639 44.5444C35.2792 45.0828 35.1562 45.6162 34.9064 46.0935C34.7547 46.4348 34.6084 47.2852 34.3647 47.4477C34.1209 47.6102 33.8718 47.4964 33.6497 47.6156C33.5447 47.9131 33.4668 48.2195 33.4168 48.531C33.238 48.7856 32.9672 48.9481 32.7722 49.1919C32.8372 49.7335 32.4797 49.9014 32.0139 49.9339C30.6218 51.066 27.8593 50.3185 26.6839 49.5494C26.0989 49.9664 25.4489 50.3185 25.5193 51.3856C25.9876 51.7069 26.4887 51.9774 27.0143 52.1927C27.8105 52.4581 28.7855 52.3173 29.3001 52.7885C29.3426 52.8274 29.3824 52.869 29.4193 52.9131H33.4168L44.7051 39.7723L38.5247 27.0269H16.4464C16.4193 27.3519 16.3976 27.6606 16.3705 27.9694Z" fill="#B0B7BF"></path><path d="M5.99815 52.789C6.79644 52.0437 7.73314 51.4622 8.75523 51.0773C9.53877 50.7909 10.2831 50.4069 10.9707 49.9344C11.1889 49.6963 11.4679 49.5221 11.7777 49.4307C12.3608 49.4239 12.9404 49.5211 13.4894 49.7178C14.0271 49.8173 14.5817 49.7725 15.0965 49.5879C15.6112 49.4033 16.0679 49.0855 16.4198 48.6669C16.7985 48.3484 17.1128 47.9604 17.3461 47.524C17.5113 46.8475 17.559 46.1475 17.4869 45.4548C17.4869 43.9707 18.0286 42.9253 18.0611 41.5548C17.9952 40.8582 17.9717 40.1581 17.9907 39.4586C17.1803 39.128 16.4369 38.6526 15.7969 38.0557C15.2227 37.4165 14.5565 36.2248 14.7515 35.1794C14.2212 34.3826 13.9316 33.4498 13.9173 32.4928C13.968 31.5004 14.1689 30.5215 14.5132 29.5894C14.7623 28.7444 15.0061 27.8886 15.2661 27.0273H10.3044L4.70898 52.9136H5.88982C5.92232 52.8757 5.96023 52.8269 5.99815 52.789Z" fill="#B0B7BF"></path></g><defs><clipPath id="clip0_405_8337"><rect width="98.5833" height="26" fill="white" transform="translate(4.70898 27)"></rect></clipPath></defs></svg> 